<?xml version="1.0" encoding="utf-8" standalone="no"?>
<!DOCTYPE svg PUBLIC "-//W3C//DTD SVG 1.1//EN"
  "http://www.w3.org/Graphics/SVG/1.1/DTD/svg11.dtd">
<svg xmlns:xlink="http://www.w3.org/1999/xlink" width="460.8pt" height="345.6pt" viewBox="0 0 460.8 345.6" xmlns="http://www.w3.org/2000/svg" version="1.1">
 <metadata>
  <rdf:RDF xmlns:dc="http://purl.org/dc/elements/1.1/" xmlns:cc="http://creativecommons.org/ns#" xmlns:rdf="http://www.w3.org/1999/02/22-rdf-syntax-ns#">
   <cc:Work>
    <dc:type rdf:resource="http://purl.org/dc/dcmitype/StillImage"/>
    <dc:date>2024-10-31T18:13:15.632307</dc:date>
    <dc:format>image/svg+xml</dc:format>
    <dc:creator>
     <cc:Agent>
      <dc:title>Matplotlib v3.8.4, https://matplotlib.org/</dc:title>
     </cc:Agent>
    </dc:creator>
   </cc:Work>
  </rdf:RDF>
 </metadata>
 <defs>
  <style type="text/css">*{stroke-linejoin: round; stroke-linecap: butt}</style>
 </defs>
 <g id="figure_1">
  <g id="patch_1">
   <path d="M 0 345.6 
L 460.8 345.6 
L 460.8 0 
L 0 0 
z
" style="fill: #ffffff"/>
  </g>
  <g id="axes_1">
   <g id="patch_2">
    <path d="M 57.6 307.584 
L 414.72 307.584 
L 414.72 41.472 
L 57.6 41.472 
z
" style="fill: #ffffff"/>
   </g>
   <g id="matplotlib.axis_1">
    <g id="xtick_1">
     <g id="line2d_1">
      <defs>
       <path id="m2b3a0b793d" d="M 0 0 
L 0 3.5 
" style="stroke: #000000; stroke-width: 0.8"/>
      </defs>
      <g>
       <use xlink:href="#m2b3a0b793d" x="73.832727" y="307.584" style="stroke: #000000; stroke-width: 0.8"/>
      </g>
     </g>
     <g id="text_1">
      <!-- 0 -->
      <g transform="translate(70.651477 322.182437) scale(0.1 -0.1)">
       <defs>
        <path id="DejaVuSans-30" d="M 2034 4250 
Q 1547 4250 1301 3770 
Q 1056 3291 1056 2328 
Q 1056 1369 1301 889 
Q 1547 409 2034 409 
Q 2525 409 2770 889 
Q 3016 1369 3016 2328 
Q 3016 3291 2770 3770 
Q 2525 4250 2034 4250 
z
M 2034 4750 
Q 2819 4750 3233 4129 
Q 3647 3509 3647 2328 
Q 3647 1150 3233 529 
Q 2819 -91 2034 -91 
Q 1250 -91 836 529 
Q 422 1150 422 2328 
Q 422 3509 836 4129 
Q 1250 4750 2034 4750 
z
" transform="scale(0.015625)"/>
       </defs>
       <use xlink:href="#DejaVuSans-30"/>
      </g>
     </g>
    </g>
    <g id="xtick_2">
     <g id="line2d_2">
      <g>
       <use xlink:href="#m2b3a0b793d" x="138.893758" y="307.584" style="stroke: #000000; stroke-width: 0.8"/>
      </g>
     </g>
     <g id="text_2">
      <!-- 100 -->
      <g transform="translate(129.350008 322.182437) scale(0.1 -0.1)">
       <defs>
        <path id="DejaVuSans-31" d="M 794 531 
L 1825 531 
L 1825 4091 
L 703 3866 
L 703 4441 
L 1819 4666 
L 2450 4666 
L 2450 531 
L 3481 531 
L 3481 0 
L 794 0 
L 794 531 
z
" transform="scale(0.015625)"/>
       </defs>
       <use xlink:href="#DejaVuSans-31"/>
       <use xlink:href="#DejaVuSans-30" x="63.623047"/>
       <use xlink:href="#DejaVuSans-30" x="127.246094"/>
      </g>
     </g>
    </g>
    <g id="xtick_3">
     <g id="line2d_3">
      <g>
       <use xlink:href="#m2b3a0b793d" x="203.95479" y="307.584" style="stroke: #000000; stroke-width: 0.8"/>
      </g>
     </g>
     <g id="text_3">
      <!-- 200 -->
      <g transform="translate(194.41104 322.182437) scale(0.1 -0.1)">
       <defs>
        <path id="DejaVuSans-32" d="M 1228 531 
L 3431 531 
L 3431 0 
L 469 0 
L 469 531 
Q 828 903 1448 1529 
Q 2069 2156 2228 2338 
Q 2531 2678 2651 2914 
Q 2772 3150 2772 3378 
Q 2772 3750 2511 3984 
Q 2250 4219 1831 4219 
Q 1534 4219 1204 4116 
Q 875 4013 500 3803 
L 500 4441 
Q 881 4594 1212 4672 
Q 1544 4750 1819 4750 
Q 2544 4750 2975 4387 
Q 3406 4025 3406 3419 
Q 3406 3131 3298 2873 
Q 3191 2616 2906 2266 
Q 2828 2175 2409 1742 
Q 1991 1309 1228 531 
z
" transform="scale(0.015625)"/>
       </defs>
       <use xlink:href="#DejaVuSans-32"/>
       <use xlink:href="#DejaVuSans-30" x="63.623047"/>
       <use xlink:href="#DejaVuSans-30" x="127.246094"/>
      </g>
     </g>
    </g>
    <g id="xtick_4">
     <g id="line2d_4">
      <g>
       <use xlink:href="#m2b3a0b793d" x="269.015821" y="307.584" style="stroke: #000000; stroke-width: 0.8"/>
      </g>
     </g>
     <g id="text_4">
      <!-- 300 -->
      <g transform="translate(259.472071 322.182437) scale(0.1 -0.1)">
       <defs>
        <path id="DejaVuSans-33" d="M 2597 2516 
Q 3050 2419 3304 2112 
Q 3559 1806 3559 1356 
Q 3559 666 3084 287 
Q 2609 -91 1734 -91 
Q 1441 -91 1130 -33 
Q 819 25 488 141 
L 488 750 
Q 750 597 1062 519 
Q 1375 441 1716 441 
Q 2309 441 2620 675 
Q 2931 909 2931 1356 
Q 2931 1769 2642 2001 
Q 2353 2234 1838 2234 
L 1294 2234 
L 1294 2753 
L 1863 2753 
Q 2328 2753 2575 2939 
Q 2822 3125 2822 3475 
Q 2822 3834 2567 4026 
Q 2313 4219 1838 4219 
Q 1578 4219 1281 4162 
Q 984 4106 628 3988 
L 628 4550 
Q 988 4650 1302 4700 
Q 1616 4750 1894 4750 
Q 2613 4750 3031 4423 
Q 3450 4097 3450 3541 
Q 3450 3153 3228 2886 
Q 3006 2619 2597 2516 
z
" transform="scale(0.015625)"/>
       </defs>
       <use xlink:href="#DejaVuSans-33"/>
       <use xlink:href="#DejaVuSans-30" x="63.623047"/>
       <use xlink:href="#DejaVuSans-30" x="127.246094"/>
      </g>
     </g>
    </g>
    <g id="xtick_5">
     <g id="line2d_5">
      <g>
       <use xlink:href="#m2b3a0b793d" x="334.076852" y="307.584" style="stroke: #000000; stroke-width: 0.8"/>
      </g>
     </g>
     <g id="text_5">
      <!-- 400 -->
      <g transform="translate(324.533102 322.182437) scale(0.1 -0.1)">
       <defs>
        <path id="DejaVuSans-34" d="M 2419 4116 
L 825 1625 
L 2419 1625 
L 2419 4116 
z
M 2253 4666 
L 3047 4666 
L 3047 1625 
L 3713 1625 
L 3713 1100 
L 3047 1100 
L 3047 0 
L 2419 0 
L 2419 1100 
L 313 1100 
L 313 1709 
L 2253 4666 
z
" transform="scale(0.015625)"/>
       </defs>
       <use xlink:href="#DejaVuSans-34"/>
       <use xlink:href="#DejaVuSans-30" x="63.623047"/>
       <use xlink:href="#DejaVuSans-30" x="127.246094"/>
      </g>
     </g>
    </g>
    <g id="xtick_6">
     <g id="line2d_6">
      <g>
       <use xlink:href="#m2b3a0b793d" x="399.137883" y="307.584" style="stroke: #000000; stroke-width: 0.8"/>
      </g>
     </g>
     <g id="text_6">
      <!-- 500 -->
      <g transform="translate(389.594133 322.182437) scale(0.1 -0.1)">
       <defs>
        <path id="DejaVuSans-35" d="M 691 4666 
L 3169 4666 
L 3169 4134 
L 1269 4134 
L 1269 2991 
Q 1406 3038 1543 3061 
Q 1681 3084 1819 3084 
Q 2600 3084 3056 2656 
Q 3513 2228 3513 1497 
Q 3513 744 3044 326 
Q 2575 -91 1722 -91 
Q 1428 -91 1123 -41 
Q 819 9 494 109 
L 494 744 
Q 775 591 1075 516 
Q 1375 441 1709 441 
Q 2250 441 2565 725 
Q 2881 1009 2881 1497 
Q 2881 1984 2565 2268 
Q 2250 2553 1709 2553 
Q 1456 2553 1204 2497 
Q 953 2441 691 2322 
L 691 4666 
z
" transform="scale(0.015625)"/>
       </defs>
       <use xlink:href="#DejaVuSans-35"/>
       <use xlink:href="#DejaVuSans-30" x="63.623047"/>
       <use xlink:href="#DejaVuSans-30" x="127.246094"/>
      </g>
     </g>
    </g>
    <g id="text_7">
     <!-- Position -->
     <g transform="translate(216.695937 335.860562) scale(0.1 -0.1)">
      <defs>
       <path id="DejaVuSans-50" d="M 1259 4147 
L 1259 2394 
L 2053 2394 
Q 2494 2394 2734 2622 
Q 2975 2850 2975 3272 
Q 2975 3691 2734 3919 
Q 2494 4147 2053 4147 
L 1259 4147 
z
M 628 4666 
L 2053 4666 
Q 2838 4666 3239 4311 
Q 3641 3956 3641 3272 
Q 3641 2581 3239 2228 
Q 2838 1875 2053 1875 
L 1259 1875 
L 1259 0 
L 628 0 
L 628 4666 
z
" transform="scale(0.015625)"/>
       <path id="DejaVuSans-6f" d="M 1959 3097 
Q 1497 3097 1228 2736 
Q 959 2375 959 1747 
Q 959 1119 1226 758 
Q 1494 397 1959 397 
Q 2419 397 2687 759 
Q 2956 1122 2956 1747 
Q 2956 2369 2687 2733 
Q 2419 3097 1959 3097 
z
M 1959 3584 
Q 2709 3584 3137 3096 
Q 3566 2609 3566 1747 
Q 3566 888 3137 398 
Q 2709 -91 1959 -91 
Q 1206 -91 779 398 
Q 353 888 353 1747 
Q 353 2609 779 3096 
Q 1206 3584 1959 3584 
z
" transform="scale(0.015625)"/>
       <path id="DejaVuSans-73" d="M 2834 3397 
L 2834 2853 
Q 2591 2978 2328 3040 
Q 2066 3103 1784 3103 
Q 1356 3103 1142 2972 
Q 928 2841 928 2578 
Q 928 2378 1081 2264 
Q 1234 2150 1697 2047 
L 1894 2003 
Q 2506 1872 2764 1633 
Q 3022 1394 3022 966 
Q 3022 478 2636 193 
Q 2250 -91 1575 -91 
Q 1294 -91 989 -36 
Q 684 19 347 128 
L 347 722 
Q 666 556 975 473 
Q 1284 391 1588 391 
Q 1994 391 2212 530 
Q 2431 669 2431 922 
Q 2431 1156 2273 1281 
Q 2116 1406 1581 1522 
L 1381 1569 
Q 847 1681 609 1914 
Q 372 2147 372 2553 
Q 372 3047 722 3315 
Q 1072 3584 1716 3584 
Q 2034 3584 2315 3537 
Q 2597 3491 2834 3397 
z
" transform="scale(0.015625)"/>
       <path id="DejaVuSans-69" d="M 603 3500 
L 1178 3500 
L 1178 0 
L 603 0 
L 603 3500 
z
M 603 4863 
L 1178 4863 
L 1178 4134 
L 603 4134 
L 603 4863 
z
" transform="scale(0.015625)"/>
       <path id="DejaVuSans-74" d="M 1172 4494 
L 1172 3500 
L 2356 3500 
L 2356 3053 
L 1172 3053 
L 1172 1153 
Q 1172 725 1289 603 
Q 1406 481 1766 481 
L 2356 481 
L 2356 0 
L 1766 0 
Q 1100 0 847 248 
Q 594 497 594 1153 
L 594 3053 
L 172 3053 
L 172 3500 
L 594 3500 
L 594 4494 
L 1172 4494 
z
" transform="scale(0.015625)"/>
       <path id="DejaVuSans-6e" d="M 3513 2113 
L 3513 0 
L 2938 0 
L 2938 2094 
Q 2938 2591 2744 2837 
Q 2550 3084 2163 3084 
Q 1697 3084 1428 2787 
Q 1159 2491 1159 1978 
L 1159 0 
L 581 0 
L 581 3500 
L 1159 3500 
L 1159 2956 
Q 1366 3272 1645 3428 
Q 1925 3584 2291 3584 
Q 2894 3584 3203 3211 
Q 3513 2838 3513 2113 
z
" transform="scale(0.015625)"/>
      </defs>
      <use xlink:href="#DejaVuSans-50"/>
      <use xlink:href="#DejaVuSans-6f" x="56.677734"/>
      <use xlink:href="#DejaVuSans-73" x="117.859375"/>
      <use xlink:href="#DejaVuSans-69" x="169.958984"/>
      <use xlink:href="#DejaVuSans-74" x="197.742188"/>
      <use xlink:href="#DejaVuSans-69" x="236.951172"/>
      <use xlink:href="#DejaVuSans-6f" x="264.734375"/>
      <use xlink:href="#DejaVuSans-6e" x="325.916016"/>
     </g>
    </g>
   </g>
   <g id="matplotlib.axis_2">
    <g id="ytick_1">
     <g id="line2d_7">
      <defs>
       <path id="m43c7606a1a" d="M 0 0 
L -3.5 0 
" style="stroke: #000000; stroke-width: 0.8"/>
      </defs>
      <g>
       <use xlink:href="#m43c7606a1a" x="57.6" y="295.488" style="stroke: #000000; stroke-width: 0.8"/>
      </g>
     </g>
     <g id="text_8">
      <!-- 0 -->
      <g transform="translate(44.2375 299.287219) scale(0.1 -0.1)">
       <use xlink:href="#DejaVuSans-30"/>
      </g>
     </g>
    </g>
    <g id="ytick_2">
     <g id="line2d_8">
      <g>
       <use xlink:href="#m43c7606a1a" x="57.6" y="258.269871" style="stroke: #000000; stroke-width: 0.8"/>
      </g>
     </g>
     <g id="text_9">
      <!-- 100 -->
      <g transform="translate(31.5125 262.06909) scale(0.1 -0.1)">
       <use xlink:href="#DejaVuSans-31"/>
       <use xlink:href="#DejaVuSans-30" x="63.623047"/>
       <use xlink:href="#DejaVuSans-30" x="127.246094"/>
      </g>
     </g>
    </g>
    <g id="ytick_3">
     <g id="line2d_9">
      <g>
       <use xlink:href="#m43c7606a1a" x="57.6" y="221.051743" style="stroke: #000000; stroke-width: 0.8"/>
      </g>
     </g>
     <g id="text_10">
      <!-- 200 -->
      <g transform="translate(31.5125 224.850962) scale(0.1 -0.1)">
       <use xlink:href="#DejaVuSans-32"/>
       <use xlink:href="#DejaVuSans-30" x="63.623047"/>
       <use xlink:href="#DejaVuSans-30" x="127.246094"/>
      </g>
     </g>
    </g>
    <g id="ytick_4">
     <g id="line2d_10">
      <g>
       <use xlink:href="#m43c7606a1a" x="57.6" y="183.833614" style="stroke: #000000; stroke-width: 0.8"/>
      </g>
     </g>
     <g id="text_11">
      <!-- 300 -->
      <g transform="translate(31.5125 187.632833) scale(0.1 -0.1)">
       <use xlink:href="#DejaVuSans-33"/>
       <use xlink:href="#DejaVuSans-30" x="63.623047"/>
       <use xlink:href="#DejaVuSans-30" x="127.246094"/>
      </g>
     </g>
    </g>
    <g id="ytick_5">
     <g id="line2d_11">
      <g>
       <use xlink:href="#m43c7606a1a" x="57.6" y="146.615486" style="stroke: #000000; stroke-width: 0.8"/>
      </g>
     </g>
     <g id="text_12">
      <!-- 400 -->
      <g transform="translate(31.5125 150.414705) scale(0.1 -0.1)">
       <use xlink:href="#DejaVuSans-34"/>
       <use xlink:href="#DejaVuSans-30" x="63.623047"/>
       <use xlink:href="#DejaVuSans-30" x="127.246094"/>
      </g>
     </g>
    </g>
    <g id="ytick_6">
     <g id="line2d_12">
      <g>
       <use xlink:href="#m43c7606a1a" x="57.6" y="109.397357" style="stroke: #000000; stroke-width: 0.8"/>
      </g>
     </g>
     <g id="text_13">
      <!-- 500 -->
      <g transform="translate(31.5125 113.196576) scale(0.1 -0.1)">
       <use xlink:href="#DejaVuSans-35"/>
       <use xlink:href="#DejaVuSans-30" x="63.623047"/>
       <use xlink:href="#DejaVuSans-30" x="127.246094"/>
      </g>
     </g>
    </g>
    <g id="ytick_7">
     <g id="line2d_13">
      <g>
       <use xlink:href="#m43c7606a1a" x="57.6" y="72.179229" style="stroke: #000000; stroke-width: 0.8"/>
      </g>
     </g>
     <g id="text_14">
      <!-- 600 -->
      <g transform="translate(31.5125 75.978447) scale(0.1 -0.1)">
       <defs>
        <path id="DejaVuSans-36" d="M 2113 2584 
Q 1688 2584 1439 2293 
Q 1191 2003 1191 1497 
Q 1191 994 1439 701 
Q 1688 409 2113 409 
Q 2538 409 2786 701 
Q 3034 994 3034 1497 
Q 3034 2003 2786 2293 
Q 2538 2584 2113 2584 
z
M 3366 4563 
L 3366 3988 
Q 3128 4100 2886 4159 
Q 2644 4219 2406 4219 
Q 1781 4219 1451 3797 
Q 1122 3375 1075 2522 
Q 1259 2794 1537 2939 
Q 1816 3084 2150 3084 
Q 2853 3084 3261 2657 
Q 3669 2231 3669 1497 
Q 3669 778 3244 343 
Q 2819 -91 2113 -91 
Q 1303 -91 875 529 
Q 447 1150 447 2328 
Q 447 3434 972 4092 
Q 1497 4750 2381 4750 
Q 2619 4750 2861 4703 
Q 3103 4656 3366 4563 
z
" transform="scale(0.015625)"/>
       </defs>
       <use xlink:href="#DejaVuSans-36"/>
       <use xlink:href="#DejaVuSans-30" x="63.623047"/>
       <use xlink:href="#DejaVuSans-30" x="127.246094"/>
      </g>
     </g>
    </g>
    <g id="text_15">
     <!-- Step -->
     <g transform="translate(25.432812 185.913156) rotate(-90) scale(0.1 -0.1)">
      <defs>
       <path id="DejaVuSans-53" d="M 3425 4513 
L 3425 3897 
Q 3066 4069 2747 4153 
Q 2428 4238 2131 4238 
Q 1616 4238 1336 4038 
Q 1056 3838 1056 3469 
Q 1056 3159 1242 3001 
Q 1428 2844 1947 2747 
L 2328 2669 
Q 3034 2534 3370 2195 
Q 3706 1856 3706 1288 
Q 3706 609 3251 259 
Q 2797 -91 1919 -91 
Q 1588 -91 1214 -16 
Q 841 59 441 206 
L 441 856 
Q 825 641 1194 531 
Q 1563 422 1919 422 
Q 2459 422 2753 634 
Q 3047 847 3047 1241 
Q 3047 1584 2836 1778 
Q 2625 1972 2144 2069 
L 1759 2144 
Q 1053 2284 737 2584 
Q 422 2884 422 3419 
Q 422 4038 858 4394 
Q 1294 4750 2059 4750 
Q 2388 4750 2728 4690 
Q 3069 4631 3425 4513 
z
" transform="scale(0.015625)"/>
       <path id="DejaVuSans-65" d="M 3597 1894 
L 3597 1613 
L 953 1613 
Q 991 1019 1311 708 
Q 1631 397 2203 397 
Q 2534 397 2845 478 
Q 3156 559 3463 722 
L 3463 178 
Q 3153 47 2828 -22 
Q 2503 -91 2169 -91 
Q 1331 -91 842 396 
Q 353 884 353 1716 
Q 353 2575 817 3079 
Q 1281 3584 2069 3584 
Q 2775 3584 3186 3129 
Q 3597 2675 3597 1894 
z
M 3022 2063 
Q 3016 2534 2758 2815 
Q 2500 3097 2075 3097 
Q 1594 3097 1305 2825 
Q 1016 2553 972 2059 
L 3022 2063 
z
" transform="scale(0.015625)"/>
       <path id="DejaVuSans-70" d="M 1159 525 
L 1159 -1331 
L 581 -1331 
L 581 3500 
L 1159 3500 
L 1159 2969 
Q 1341 3281 1617 3432 
Q 1894 3584 2278 3584 
Q 2916 3584 3314 3078 
Q 3713 2572 3713 1747 
Q 3713 922 3314 415 
Q 2916 -91 2278 -91 
Q 1894 -91 1617 61 
Q 1341 213 1159 525 
z
M 3116 1747 
Q 3116 2381 2855 2742 
Q 2594 3103 2138 3103 
Q 1681 3103 1420 2742 
Q 1159 2381 1159 1747 
Q 1159 1113 1420 752 
Q 1681 391 2138 391 
Q 2594 391 2855 752 
Q 3116 1113 3116 1747 
z
" transform="scale(0.015625)"/>
      </defs>
      <use xlink:href="#DejaVuSans-53"/>
      <use xlink:href="#DejaVuSans-74" x="63.476562"/>
      <use xlink:href="#DejaVuSans-65" x="102.685547"/>
      <use xlink:href="#DejaVuSans-70" x="164.208984"/>
     </g>
    </g>
   </g>
   <g id="line2d_14">
    <path d="M 73.832727 295.488 
L 398.487273 295.488 
L 398.487273 295.488 
" clip-path="url(#p315b8b884b)" style="fill: none; stroke: #000000; stroke-width: 1.5; stroke-linecap: square"/>
   </g>
   <g id="line2d_15">
    <path d="M 73.832727 291.766187 
L 398.487273 291.766187 
L 398.487273 291.766187 
" clip-path="url(#p315b8b884b)" style="fill: none; stroke: #000000; stroke-width: 1.5; stroke-linecap: square"/>
   </g>
   <g id="line2d_16">
    <path d="M 73.832727 288.044374 
L 100.50775 287.95486 
L 103.110191 287.706391 
L 105.062022 287.303402 
L 106.363243 286.914387 
L 108.315074 287.462644 
L 110.266905 287.793943 
L 112.869346 287.982865 
L 118.074228 288.04273 
L 185.087091 288.044374 
L 398.487273 288.044374 
L 398.487273 288.044374 
" clip-path="url(#p315b8b884b)" style="fill: none; stroke: #000000; stroke-width: 1.5; stroke-linecap: square"/>
   </g>
   <g id="line2d_17">
    <path d="M 73.832727 284.322561 
L 94.001647 284.233048 
L 96.604088 283.984579 
L 98.555919 283.581589 
L 100.50775 282.969031 
L 103.760802 281.848105 
L 105.062022 281.58651 
L 107.013853 281.531447 
L 108.315074 281.694798 
L 110.266905 282.257558 
L 114.170567 283.581589 
L 116.122398 283.984579 
L 118.724839 284.233048 
L 123.279111 284.318255 
L 157.761457 284.322561 
L 398.487273 284.322561 
L 398.487273 284.322561 
" clip-path="url(#p315b8b884b)" style="fill: none; stroke: #000000; stroke-width: 1.5; stroke-linecap: square"/>
   </g>
   <g id="line2d_18">
    <path d="M 73.832727 280.600749 
L 87.495544 280.511235 
L 90.097985 280.262766 
L 92.049816 279.859777 
L 94.001647 279.247218 
L 97.254698 278.126292 
L 98.555919 277.864697 
L 99.85714 277.809143 
L 101.15836 277.972499 
L 103.110191 278.536231 
L 106.363243 279.676479 
L 109.616294 278.536231 
L 111.568125 277.972499 
L 112.869346 277.809143 
L 114.170567 277.864697 
L 115.471787 278.126292 
L 117.423618 278.770823 
L 120.67667 279.859777 
L 122.628501 280.262766 
L 125.230942 280.511235 
L 129.785214 280.596442 
L 164.267561 280.600749 
L 398.487273 280.600749 
L 398.487273 280.600749 
" clip-path="url(#p315b8b884b)" style="fill: none; stroke: #000000; stroke-width: 1.5; stroke-linecap: square"/>
   </g>
   <g id="line2d_19">
    <path d="M 73.832727 276.878247 
L 80.989441 276.789422 
L 83.591882 276.540953 
L 85.543713 276.137964 
L 87.495544 275.525405 
L 90.748595 274.404479 
L 92.049816 274.142884 
L 93.351037 274.08733 
L 94.652257 274.250686 
L 96.604088 274.814418 
L 100.50775 276.138455 
L 102.459581 276.540466 
L 105.062022 276.788934 
L 107.013853 276.817914 
L 109.616294 276.628992 
L 111.568125 276.29672 
L 113.519956 275.749434 
L 118.074228 274.250686 
L 119.375449 274.08733 
L 120.67667 274.142884 
L 121.97789 274.404479 
L 123.929721 275.04901 
L 127.182773 276.137964 
L 129.134604 276.540953 
L 131.737045 276.789422 
L 136.291317 276.874629 
L 170.773664 276.878936 
L 398.487273 276.878936 
L 398.487273 276.878936 
" clip-path="url(#p315b8b884b)" style="fill: none; stroke: #000000; stroke-width: 1.5; stroke-linecap: square"/>
   </g>
   <g id="line2d_20">
    <path d="M 73.832727 273.095614 
L 76.435169 272.906692 
L 78.386999 272.575392 
L 80.33883 272.027136 
L 84.893103 270.529359 
L 86.194323 270.366009 
L 87.495544 270.421557 
L 88.796764 270.683152 
L 90.748595 271.326711 
L 94.001647 272.416642 
L 95.953478 272.818653 
L 98.555919 273.067122 
L 102.459581 273.150165 
L 113.519956 273.096101 
L 116.122398 272.907179 
L 118.074228 272.574907 
L 120.026059 272.027622 
L 124.580332 270.528874 
L 125.881552 270.365518 
L 127.182773 270.421071 
L 128.483993 270.682666 
L 130.435824 271.327197 
L 133.688876 272.416151 
L 135.640707 272.81914 
L 138.243148 273.067609 
L 142.79742 273.152817 
L 177.279767 273.157123 
L 398.487273 273.157123 
L 398.487273 273.157123 
" clip-path="url(#p315b8b884b)" style="fill: none; stroke: #000000; stroke-width: 1.5; stroke-linecap: square"/>
   </g>
   <g id="line2d_21">
    <path d="M 73.832727 268.305323 
L 78.386999 266.807546 
L 79.68822 266.644196 
L 80.989441 266.699744 
L 82.290661 266.961339 
L 84.242492 267.604898 
L 87.495544 268.694829 
L 89.447375 269.09684 
L 92.049816 269.345309 
L 95.953478 269.428352 
L 117.423618 269.424677 
L 121.32728 269.30667 
L 123.929721 268.987407 
L 125.881552 268.511041 
L 129.134604 267.370793 
L 131.086435 266.807061 
L 132.387655 266.643705 
L 133.688876 266.699258 
L 134.990097 266.960853 
L 136.941927 267.605384 
L 140.194979 268.694338 
L 142.14681 269.097327 
L 144.749251 269.345796 
L 149.303523 269.431004 
L 183.78587 269.43531 
L 398.487273 269.43531 
L 398.487273 269.43531 
" clip-path="url(#p315b8b884b)" style="fill: none; stroke: #000000; stroke-width: 1.5; stroke-linecap: square"/>
   </g>
   <g id="line2d_22">
    <path d="M 73.832727 262.921892 
L 75.133948 263.085248 
L 77.085779 263.64898 
L 80.989441 264.973016 
L 82.941272 265.375027 
L 85.543713 265.623496 
L 89.447375 265.706539 
L 113.519956 265.71374 
L 127.182773 265.623496 
L 129.785214 265.375027 
L 131.737045 264.973016 
L 134.339486 264.12379 
L 136.941927 263.239526 
L 138.243148 262.977931 
L 139.544369 262.922383 
L 140.845589 263.085734 
L 142.79742 263.648494 
L 146.701082 264.972525 
L 148.652913 265.375514 
L 151.255354 265.623983 
L 155.809627 265.709191 
L 190.291973 265.713497 
L 398.487273 265.713497 
L 398.487273 265.713497 
" clip-path="url(#p315b8b884b)" style="fill: none; stroke: #000000; stroke-width: 1.5; stroke-linecap: square"/>
   </g>
   <g id="line2d_23">
    <path d="M 73.832727 261.067415 
L 75.784558 261.543782 
L 77.736389 261.810058 
L 80.989441 261.965055 
L 90.748595 261.991436 
L 133.038266 261.930662 
L 135.640707 261.74174 
L 137.592538 261.409468 
L 139.544369 260.862183 
L 144.098641 259.363435 
L 145.399862 259.200079 
L 146.701082 259.255633 
L 148.002303 259.517228 
L 149.954134 260.161758 
L 153.207185 261.250712 
L 155.159016 261.653701 
L 157.761457 261.90217 
L 162.31573 261.987378 
L 196.798076 261.991684 
L 398.487273 261.991684 
L 398.487273 261.991684 
" clip-path="url(#p315b8b884b)" style="fill: none; stroke: #000000; stroke-width: 1.5; stroke-linecap: square"/>
   </g>
   <g id="line2d_24">
    <path d="M 73.832727 258.228642 
L 80.33883 258.269384 
L 138.893758 258.228642 
L 142.14681 258.019928 
L 144.098641 257.687655 
L 146.050472 257.14037 
L 150.604744 255.641622 
L 151.905965 255.478266 
L 153.207185 255.53382 
L 154.508406 255.795415 
L 156.460237 256.439945 
L 159.713288 257.528899 
L 161.665119 257.931889 
L 164.267561 258.180358 
L 168.821833 258.265565 
L 203.304179 258.269871 
L 398.487273 258.269871 
L 398.487273 258.269871 
" clip-path="url(#p315b8b884b)" style="fill: none; stroke: #000000; stroke-width: 1.5; stroke-linecap: square"/>
   </g>
   <g id="line2d_25">
    <path d="M 73.832727 254.547571 
L 145.399862 254.506829 
L 148.652913 254.298115 
L 150.604744 253.965842 
L 152.556575 253.418557 
L 157.110847 251.919809 
L 158.412068 251.756453 
L 159.713288 251.812007 
L 161.014509 252.073602 
L 162.96634 252.718133 
L 166.219392 253.807087 
L 168.171222 254.210076 
L 170.773664 254.458545 
L 175.327936 254.543752 
L 209.810282 254.548059 
L 398.487273 254.548059 
L 398.487273 254.548059 
" clip-path="url(#p315b8b884b)" style="fill: none; stroke: #000000; stroke-width: 1.5; stroke-linecap: square"/>
   </g>
   <g id="line2d_26">
    <path d="M 73.832727 250.826002 
L 151.905965 250.785016 
L 155.159016 250.576302 
L 157.110847 250.24403 
L 159.062678 249.696744 
L 163.61695 248.197996 
L 164.918171 248.03464 
L 166.219392 248.090194 
L 167.520612 248.351789 
L 169.472443 248.99632 
L 172.725495 250.085274 
L 174.677326 250.488263 
L 177.279767 250.736732 
L 181.834039 250.82194 
L 216.316385 250.826246 
L 398.487273 250.826246 
L 398.487273 250.826246 
" clip-path="url(#p315b8b884b)" style="fill: none; stroke: #000000; stroke-width: 1.5; stroke-linecap: square"/>
   </g>
   <g id="line2d_27">
    <path d="M 73.832727 247.104189 
L 158.412068 247.063204 
L 161.665119 246.854489 
L 163.61695 246.522217 
L 165.568781 245.974932 
L 170.123053 244.476184 
L 171.424274 244.312828 
L 172.725495 244.368381 
L 174.026715 244.629976 
L 175.978546 245.274507 
L 179.231598 246.363461 
L 181.183429 246.76645 
L 183.78587 247.014919 
L 188.340142 247.100127 
L 222.822489 247.104433 
L 398.487273 247.104433 
L 398.487273 247.104433 
" clip-path="url(#p315b8b884b)" style="fill: none; stroke: #000000; stroke-width: 1.5; stroke-linecap: square"/>
   </g>
   <g id="line2d_28">
    <path d="M 73.832727 243.382376 
L 164.918171 243.341391 
L 168.171222 243.132676 
L 170.123053 242.800404 
L 172.074884 242.253119 
L 176.629156 240.754371 
L 177.930377 240.591015 
L 179.231598 240.646568 
L 180.532818 240.908163 
L 182.484649 241.552694 
L 185.737701 242.641648 
L 187.689532 243.044637 
L 190.291973 243.293106 
L 194.846245 243.378314 
L 229.328592 243.38262 
L 398.487273 243.38262 
L 398.487273 243.38262 
" clip-path="url(#p315b8b884b)" style="fill: none; stroke: #000000; stroke-width: 1.5; stroke-linecap: square"/>
   </g>
   <g id="line2d_29">
    <path d="M 73.832727 239.660564 
L 170.773664 239.634178 
L 174.026715 239.479181 
L 175.978546 239.212904 
L 177.930377 238.736538 
L 181.183429 237.59629 
L 183.13526 237.032558 
L 184.43648 236.869202 
L 185.737701 236.924756 
L 187.038921 237.186351 
L 188.990752 237.830881 
L 192.243804 238.919835 
L 194.195635 239.322824 
L 196.798076 239.571293 
L 201.352348 239.656501 
L 235.834695 239.660807 
L 398.487273 239.660807 
L 398.487273 239.660807 
" clip-path="url(#p315b8b884b)" style="fill: none; stroke: #000000; stroke-width: 1.5; stroke-linecap: square"/>
   </g>
   <g id="line2d_30">
    <path d="M 73.832727 235.938751 
L 177.279767 235.912365 
L 180.532818 235.757368 
L 182.484649 235.491092 
L 184.43648 235.014725 
L 187.689532 233.874477 
L 189.641363 233.310745 
L 190.942583 233.147389 
L 192.243804 233.202943 
L 193.545025 233.464538 
L 195.496856 234.109068 
L 198.749907 235.198022 
L 200.701738 235.601011 
L 203.304179 235.84948 
L 207.858451 235.934688 
L 242.340798 235.938994 
L 398.487273 235.938994 
L 398.487273 235.938994 
" clip-path="url(#p315b8b884b)" style="fill: none; stroke: #000000; stroke-width: 1.5; stroke-linecap: square"/>
   </g>
   <g id="line2d_31">
    <path d="M 73.832727 232.216938 
L 183.78587 232.190552 
L 187.038921 232.035555 
L 188.990752 231.769279 
L 190.942583 231.292912 
L 194.195635 230.152664 
L 196.147466 229.588932 
L 197.448686 229.425576 
L 198.749907 229.48113 
L 200.051128 229.742725 
L 202.002959 230.387255 
L 205.25601 231.476209 
L 207.207841 231.879199 
L 209.810282 232.127668 
L 214.364555 232.212875 
L 248.846901 232.217181 
L 398.487273 232.217181 
L 398.487273 232.217181 
" clip-path="url(#p315b8b884b)" style="fill: none; stroke: #000000; stroke-width: 1.5; stroke-linecap: square"/>
   </g>
   <g id="line2d_32">
    <path d="M 73.832727 228.495125 
L 189.641363 228.477855 
L 193.545025 228.313742 
L 195.496856 228.047466 
L 197.448686 227.571099 
L 200.701738 226.430851 
L 202.653569 225.867119 
L 203.95479 225.703763 
L 205.25601 225.759317 
L 206.557231 226.020912 
L 208.509062 226.665443 
L 211.762113 227.754397 
L 213.713944 228.157386 
L 216.316385 228.405855 
L 220.870658 228.491062 
L 255.353004 228.495369 
L 398.487273 228.495369 
L 398.487273 228.495369 
" clip-path="url(#p315b8b884b)" style="fill: none; stroke: #000000; stroke-width: 1.5; stroke-linecap: square"/>
   </g>
   <g id="line2d_33">
    <path d="M 73.832727 224.773312 
L 196.147466 224.756042 
L 200.051128 224.591929 
L 202.002959 224.325653 
L 203.95479 223.849286 
L 207.207841 222.709038 
L 209.159672 222.145306 
L 210.460893 221.98195 
L 211.762113 222.037504 
L 213.063334 222.299099 
L 215.015165 222.94363 
L 218.268216 224.032584 
L 220.220047 224.435573 
L 222.822489 224.684042 
L 227.376761 224.76925 
L 261.859107 224.773556 
L 398.487273 224.773556 
L 398.487273 224.773556 
" clip-path="url(#p315b8b884b)" style="fill: none; stroke: #000000; stroke-width: 1.5; stroke-linecap: square"/>
   </g>
   <g id="line2d_34">
    <path d="M 73.832727 221.051499 
L 202.002959 221.041109 
L 205.906621 220.923103 
L 208.509062 220.60384 
L 210.460893 220.127473 
L 213.713944 218.987225 
L 215.665775 218.423494 
L 216.966996 218.260138 
L 218.268216 218.315691 
L 219.569437 218.577286 
L 221.521268 219.221817 
L 224.77432 220.310771 
L 226.72615 220.71376 
L 229.328592 220.962229 
L 233.882864 221.047437 
L 268.36521 221.051743 
L 398.487273 221.051743 
L 398.487273 221.051743 
" clip-path="url(#p315b8b884b)" style="fill: none; stroke: #000000; stroke-width: 1.5; stroke-linecap: square"/>
   </g>
   <g id="line2d_35">
    <path d="M 73.832727 217.329686 
L 207.858451 217.322972 
L 212.412724 217.20129 
L 215.015165 216.882027 
L 216.966996 216.405661 
L 220.220047 215.265413 
L 222.171878 214.701681 
L 223.473099 214.538325 
L 224.77432 214.593878 
L 226.07554 214.855473 
L 228.027371 215.500004 
L 231.280423 216.589343 
L 233.232254 216.992465 
L 235.834695 217.245227 
L 239.738357 217.328169 
L 314.558543 217.32993 
L 398.487273 217.32993 
L 398.487273 217.32993 
" clip-path="url(#p315b8b884b)" style="fill: none; stroke: #000000; stroke-width: 1.5; stroke-linecap: square"/>
   </g>
   <g id="line2d_36">
    <path d="M 73.832727 213.607874 
L 213.713944 213.604298 
L 218.918827 213.479477 
L 221.521268 213.160215 
L 223.473099 212.683848 
L 226.72615 211.544119 
L 228.677981 210.983329 
L 229.979202 210.824506 
L 231.280423 210.889467 
L 232.581643 211.16896 
L 234.533474 211.865756 
L 237.786526 213.113932 
L 239.087746 213.392267 
L 241.039577 213.563236 
L 245.59385 213.60793 
L 398.487273 213.608117 
L 398.487273 213.608117 
" clip-path="url(#p315b8b884b)" style="fill: none; stroke: #000000; stroke-width: 1.5; stroke-linecap: square"/>
   </g>
   <g id="line2d_37">
    <path d="M 73.832727 209.886061 
L 219.569437 209.884329 
L 225.42493 209.782204 
L 228.027371 209.525965 
L 229.979202 209.145338 
L 235.834695 207.701663 
L 237.135915 207.657487 
L 238.437136 207.942508 
L 242.991408 209.595202 
L 244.943239 209.819464 
L 248.846901 209.885161 
L 353.595161 209.886304 
L 398.487273 209.886304 
L 398.487273 209.886304 
" clip-path="url(#p315b8b884b)" style="fill: none; stroke: #000000; stroke-width: 1.5; stroke-linecap: square"/>
   </g>
   <g id="line2d_38">
    <path d="M 73.832727 206.164248 
L 223.473099 206.347308 
L 229.979202 206.686045 
L 231.931033 206.564729 
L 233.882864 206.240432 
L 235.834695 205.69355 
L 237.786526 204.939877 
L 239.738357 204.146579 
L 241.039577 203.924007 
L 242.340798 204.091907 
L 243.642019 204.565322 
L 246.24446 205.607348 
L 247.54568 205.911409 
L 249.497511 206.108062 
L 253.401173 206.163589 
L 384.173846 206.164491 
L 398.487273 206.164491 
L 398.487273 206.164491 
" clip-path="url(#p315b8b884b)" style="fill: none; stroke: #000000; stroke-width: 1.5; stroke-linecap: square"/>
   </g>
   <g id="line2d_39">
    <path d="M 73.832727 202.442435 
L 216.966996 202.625739 
L 224.123709 203.005216 
L 227.376761 202.856827 
L 233.882864 202.484551 
L 238.437136 202.286458 
L 239.738357 202.060887 
L 241.039577 201.66356 
L 244.292629 200.359554 
L 245.59385 200.203416 
L 246.89507 200.436702 
L 248.846901 201.228755 
L 250.798732 201.948226 
L 252.099953 202.22332 
L 254.051784 202.395153 
L 258.606056 202.442406 
L 398.487273 202.442679 
L 398.487273 202.442679 
" clip-path="url(#p315b8b884b)" style="fill: none; stroke: #000000; stroke-width: 1.5; stroke-linecap: square"/>
   </g>
   <g id="line2d_40">
    <path d="M 73.832727 198.720622 
L 210.460893 198.903926 
L 217.617606 199.283408 
L 220.870658 199.135032 
L 226.72615 198.786852 
L 233.232254 198.722092 
L 242.340798 198.610653 
L 244.292629 198.285796 
L 245.59385 197.856795 
L 248.846901 196.582645 
L 250.148122 196.495661 
L 251.449342 196.789976 
L 256.003615 198.426869 
L 257.955445 198.65095 
L 261.859107 198.719523 
L 355.546992 198.720866 
L 398.487273 198.720866 
L 398.487273 198.720866 
" clip-path="url(#p315b8b884b)" style="fill: none; stroke: #000000; stroke-width: 1.5; stroke-linecap: square"/>
   </g>
   <g id="line2d_41">
    <path d="M 73.832727 194.998809 
L 203.95479 195.182114 
L 211.111503 195.561596 
L 214.364555 195.413219 
L 220.220047 195.06504 
L 226.72615 195.000288 
L 246.24446 194.923354 
L 248.196291 194.667636 
L 249.497511 194.296256 
L 253.401173 192.816801 
L 254.702394 192.800405 
L 256.003615 193.150514 
L 259.907276 194.61358 
L 261.859107 194.898672 
L 265.112159 194.994132 
L 294.389623 194.999053 
L 398.487273 194.999053 
L 398.487273 194.999053 
" clip-path="url(#p315b8b884b)" style="fill: none; stroke: #000000; stroke-width: 1.5; stroke-linecap: square"/>
   </g>
   <g id="line2d_42">
    <path d="M 73.832727 191.276996 
L 197.448686 191.460301 
L 204.6054 191.839783 
L 207.858451 191.691406 
L 213.713944 191.343227 
L 220.220047 191.278475 
L 250.798732 191.187444 
L 252.750563 190.897318 
L 254.051784 190.493398 
L 257.304835 189.183988 
L 258.606056 189.039898 
L 259.907276 189.283394 
L 261.859107 190.073516 
L 263.810938 190.782431 
L 265.762769 191.136434 
L 268.36521 191.261925 
L 279.425586 191.27724 
L 398.487273 191.27724 
L 398.487273 191.27724 
" clip-path="url(#p315b8b884b)" style="fill: none; stroke: #000000; stroke-width: 1.5; stroke-linecap: square"/>
   </g>
   <g id="line2d_43">
    <path d="M 73.832727 187.555184 
L 190.942583 187.738488 
L 198.099297 188.11797 
L 201.352348 187.969594 
L 207.207841 187.621414 
L 213.713944 187.556662 
L 255.353004 187.449076 
L 257.304835 187.121384 
L 258.606056 186.685065 
L 261.859107 185.408922 
L 263.160328 185.334482 
L 264.461549 185.637545 
L 268.36521 187.116994 
L 270.317041 187.434523 
L 272.919483 187.542653 
L 285.931689 187.555427 
L 398.487273 187.555427 
L 398.487273 187.555427 
" clip-path="url(#p315b8b884b)" style="fill: none; stroke: #000000; stroke-width: 1.5; stroke-linecap: square"/>
   </g>
   <g id="line2d_44">
    <path d="M 73.832727 183.833371 
L 184.43648 184.016675 
L 191.593194 184.396157 
L 194.846245 184.247781 
L 200.701738 183.899601 
L 207.207841 183.834849 
L 259.907276 183.707962 
L 261.208497 183.504754 
L 262.509718 183.127188 
L 266.413379 181.645177 
L 267.7146 181.641442 
L 269.015821 181.99853 
L 272.268872 183.277578 
L 273.570093 183.574268 
L 275.521924 183.771756 
L 279.425586 183.832338 
L 381.571405 183.833614 
L 398.487273 183.833614 
L 398.487273 183.833614 
" clip-path="url(#p315b8b884b)" style="fill: none; stroke: #000000; stroke-width: 1.5; stroke-linecap: square"/>
   </g>
   <g id="line2d_45">
    <path d="M 73.832727 180.111558 
L 177.930377 180.294862 
L 185.087091 180.674344 
L 188.340142 180.525968 
L 194.195635 180.177788 
L 200.701738 180.113037 
L 264.461549 179.963628 
L 265.762769 179.733725 
L 267.06399 179.322801 
L 270.317041 178.008886 
L 271.618262 177.8771 
L 272.919483 178.130187 
L 277.473755 179.770733 
L 279.425586 180.023209 
L 282.678637 180.107261 
L 314.558543 180.111801 
L 398.487273 180.111801 
L 398.487273 180.111801 
" clip-path="url(#p315b8b884b)" style="fill: none; stroke: #000000; stroke-width: 1.5; stroke-linecap: square"/>
   </g>
   <g id="line2d_46">
    <path d="M 73.832727 176.389745 
L 171.424274 176.573049 
L 178.580987 176.952531 
L 181.834039 176.804155 
L 187.689532 176.455975 
L 194.195635 176.391224 
L 268.36521 176.287698 
L 269.666431 176.1081 
L 270.967652 175.757835 
L 272.919483 174.936394 
L 274.220703 174.408408 
L 275.521924 174.154556 
L 276.823144 174.289613 
L 278.124365 174.735539 
L 280.726806 175.76914 
L 282.028027 176.090465 
L 283.979858 176.314351 
L 287.232909 176.386247 
L 325.618918 176.389989 
L 398.487273 176.389989 
L 398.487273 176.389989 
" clip-path="url(#p315b8b884b)" style="fill: none; stroke: #000000; stroke-width: 1.5; stroke-linecap: square"/>
   </g>
   <g id="line2d_47">
    <path d="M 73.832727 172.667932 
L 164.267561 172.814429 
L 172.725495 173.219348 
L 176.629156 172.985813 
L 181.183429 172.734162 
L 187.689532 172.669411 
L 272.919483 172.546751 
L 274.220703 172.341889 
L 275.521924 171.957758 
L 279.425586 170.474229 
L 280.726806 170.482954 
L 282.028027 170.84649 
L 285.281079 172.112522 
L 287.232909 172.497788 
L 289.835351 172.646925 
L 298.293285 172.668176 
L 398.487273 172.668176 
L 398.487273 172.668176 
" clip-path="url(#p315b8b884b)" style="fill: none; stroke: #000000; stroke-width: 1.5; stroke-linecap: square"/>
   </g>
   <g id="line2d_48">
    <path d="M 73.832727 168.946119 
L 157.761457 169.092616 
L 166.219392 169.497535 
L 170.123053 169.264 
L 174.677326 169.01235 
L 181.183429 168.947598 
L 277.473755 168.802521 
L 278.774975 168.570092 
L 280.076196 168.151724 
L 283.329248 166.834325 
L 284.630468 166.714905 
L 285.931689 166.977126 
L 290.485961 168.60302 
L 292.437792 168.85483 
L 295.690844 168.941313 
L 325.618918 168.946363 
L 398.487273 168.946363 
L 398.487273 168.946363 
" clip-path="url(#p315b8b884b)" style="fill: none; stroke: #000000; stroke-width: 1.5; stroke-linecap: square"/>
   </g>
   <g id="line2d_49">
    <path d="M 73.832727 165.224306 
L 151.255354 165.370803 
L 159.713288 165.775722 
L 163.61695 165.542187 
L 168.171222 165.290537 
L 174.677326 165.225785 
L 282.028027 165.054572 
L 283.329248 164.792307 
L 284.630468 164.340141 
L 287.232909 163.230955 
L 288.53413 162.988314 
L 289.835351 163.134542 
L 291.136571 163.583169 
L 293.739013 164.604913 
L 295.040233 164.922415 
L 296.992064 165.146159 
L 300.245116 165.220372 
L 335.378073 165.22455 
L 398.487273 165.22455 
L 398.487273 165.22455 
" clip-path="url(#p315b8b884b)" style="fill: none; stroke: #000000; stroke-width: 1.5; stroke-linecap: square"/>
   </g>
   <g id="line2d_50">
    <path d="M 73.832727 161.502494 
L 144.749251 161.64899 
L 153.207185 162.053909 
L 157.110847 161.820374 
L 161.665119 161.568724 
L 168.171222 161.503972 
L 285.931689 161.385735 
L 287.232909 161.179072 
L 288.53413 160.787853 
L 292.437792 159.303933 
L 293.739013 159.324991 
L 295.040233 159.694249 
L 298.293285 160.947359 
L 300.245116 161.329164 
L 302.847557 161.480073 
L 311.305491 161.502737 
L 398.487273 161.502737 
L 398.487273 161.502737 
" clip-path="url(#p315b8b884b)" style="fill: none; stroke: #000000; stroke-width: 1.5; stroke-linecap: square"/>
   </g>
   <g id="line2d_51">
    <path d="M 73.832727 157.780681 
L 138.243148 157.927177 
L 146.701082 158.332096 
L 150.604744 158.098562 
L 155.159016 157.846911 
L 161.665119 157.78216 
L 290.485961 157.641608 
L 291.787182 157.406383 
L 293.088402 156.980178 
L 296.341454 155.660312 
L 297.642674 155.553358 
L 298.943895 155.824058 
L 303.498167 157.435396 
L 305.449998 157.686538 
L 308.70305 157.775351 
L 336.028683 157.780924 
L 398.487273 157.780924 
L 398.487273 157.780924 
" clip-path="url(#p315b8b884b)" style="fill: none; stroke: #000000; stroke-width: 1.5; stroke-linecap: square"/>
   </g>
   <g id="line2d_52">
    <path d="M 73.832727 154.058868 
L 131.737045 154.205364 
L 140.194979 154.610283 
L 144.098641 154.376749 
L 148.652913 154.125098 
L 155.159016 154.060347 
L 295.040233 153.893651 
L 296.341454 153.627516 
L 297.642674 153.16687 
L 300.245116 152.053894 
L 301.546336 151.822775 
L 302.847557 151.979688 
L 304.148778 152.430487 
L 306.751219 153.440557 
L 308.70305 153.856384 
L 310.654881 154.010316 
L 315.209153 154.058573 
L 398.487273 154.059112 
L 398.487273 154.059112 
" clip-path="url(#p315b8b884b)" style="fill: none; stroke: #000000; stroke-width: 1.5; stroke-linecap: square"/>
   </g>
   <g id="line2d_53">
    <path d="M 73.832727 150.337055 
L 125.230942 150.483551 
L 133.688876 150.88847 
L 137.592538 150.654936 
L 142.14681 150.403285 
L 148.652913 150.338534 
L 299.594505 150.141336 
L 300.895726 149.842207 
L 302.847557 149.051537 
L 304.799388 148.265122 
L 306.100608 148.101314 
L 307.401829 148.321328 
L 309.35366 149.076838 
L 311.305491 149.782135 
L 313.257322 150.160645 
L 315.859763 150.313241 
L 323.667087 150.337297 
L 398.487273 150.337299 
L 398.487273 150.337299 
" clip-path="url(#p315b8b884b)" style="fill: none; stroke: #000000; stroke-width: 1.5; stroke-linecap: square"/>
   </g>
   <g id="line2d_54">
    <path d="M 73.832727 146.615242 
L 118.074228 146.729973 
L 127.833383 147.144607 
L 140.845589 146.618709 
L 202.002959 146.615486 
L 302.847557 146.542246 
L 304.148778 146.384173 
L 305.449998 146.050269 
L 307.401829 145.22387 
L 308.70305 144.673978 
L 310.00427 144.389778 
L 311.305491 144.491244 
L 312.606712 144.908056 
L 315.209153 145.930464 
L 317.160984 146.380467 
L 319.112815 146.555977 
L 323.667087 146.614713 
L 398.487273 146.615486 
L 398.487273 146.615486 
" clip-path="url(#p315b8b884b)" style="fill: none; stroke: #000000; stroke-width: 1.5; stroke-linecap: square"/>
   </g>
   <g id="line2d_55">
    <path d="M 73.832727 142.893429 
L 111.568125 143.00816 
L 121.32728 143.422794 
L 134.339486 142.896896 
L 195.496856 142.893673 
L 307.401829 142.804895 
L 308.70305 142.621664 
L 310.00427 142.251666 
L 313.907932 140.720103 
L 315.209153 140.6956 
L 316.510373 141.027336 
L 320.414035 142.450558 
L 322.365866 142.760368 
L 324.968308 142.876531 
L 335.378073 142.893673 
L 398.487273 142.893673 
L 398.487273 142.893673 
" clip-path="url(#p315b8b884b)" style="fill: none; stroke: #000000; stroke-width: 1.5; stroke-linecap: square"/>
   </g>
   <g id="line2d_56">
    <path d="M 73.832727 139.171616 
L 105.062022 139.286347 
L 114.821177 139.700981 
L 127.833383 139.175083 
L 188.990752 139.17186 
L 311.956101 139.064459 
L 313.257322 138.85331 
L 314.558543 138.446564 
L 317.811594 137.090287 
L 319.112815 136.93875 
L 320.414035 137.167563 
L 322.365866 137.920661 
L 324.317697 138.616866 
L 326.269528 138.992228 
L 328.871969 139.146427 
L 336.679293 139.171857 
L 398.487273 139.17186 
L 398.487273 139.17186 
" clip-path="url(#p315b8b884b)" style="fill: none; stroke: #000000; stroke-width: 1.5; stroke-linecap: square"/>
   </g>
   <g id="line2d_57">
    <path d="M 73.832727 135.449804 
L 98.555919 135.564534 
L 108.315074 135.979168 
L 121.32728 135.45327 
L 182.484649 135.450047 
L 315.859763 135.381507 
L 317.160984 135.222771 
L 318.462204 134.882307 
L 320.414035 134.043894 
L 321.715256 133.496235 
L 323.016477 133.223246 
L 324.317697 133.335503 
L 325.618918 133.755217 
L 328.221359 134.766823 
L 330.17319 135.212232 
L 332.125021 135.388323 
L 336.028683 135.448243 
L 398.487273 135.450047 
L 398.487273 135.450047 
" clip-path="url(#p315b8b884b)" style="fill: none; stroke: #000000; stroke-width: 1.5; stroke-linecap: square"/>
   </g>
   <g id="line2d_58">
    <path d="M 73.832727 131.727991 
L 92.049816 131.842721 
L 101.808971 132.257356 
L 114.821177 131.731457 
L 175.978546 131.728235 
L 320.414035 131.644439 
L 321.715256 131.459597 
L 323.016477 131.081979 
L 326.920138 129.549573 
L 328.221359 129.537051 
L 329.52258 129.874492 
L 333.426242 131.283996 
L 335.378073 131.592074 
L 337.980514 131.710015 
L 348.390279 131.728234 
L 398.487273 131.728234 
L 398.487273 131.728234 
" clip-path="url(#p315b8b884b)" style="fill: none; stroke: #000000; stroke-width: 1.5; stroke-linecap: square"/>
   </g>
   <g id="line2d_59">
    <path d="M 73.832727 128.006178 
L 85.543713 128.120909 
L 95.302868 128.535543 
L 108.315074 128.009644 
L 169.472443 128.006422 
L 324.968308 127.904209 
L 326.269528 127.690306 
L 327.570749 127.275085 
L 330.8238 125.916062 
L 332.125021 125.776728 
L 333.426242 126.013832 
L 335.378073 126.764093 
L 337.329903 127.451556 
L 339.281734 127.823908 
L 341.884176 127.97963 
L 349.691499 128.006418 
L 398.487273 128.006422 
L 398.487273 128.006422 
" clip-path="url(#p315b8b884b)" style="fill: none; stroke: #000000; stroke-width: 1.5; stroke-linecap: square"/>
   </g>
   <g id="line2d_60">
    <path d="M 73.832727 124.29236 
L 79.68822 124.430861 
L 88.146154 124.83578 
L 92.049816 124.602246 
L 96.604088 124.350595 
L 103.110191 124.285844 
L 251.449342 124.284608 
L 328.871969 124.221063 
L 330.17319 124.061418 
L 331.474411 123.713887 
L 333.426242 122.863583 
L 334.727462 122.31895 
L 336.028683 122.057349 
L 337.329903 122.179968 
L 338.631124 122.602083 
L 341.233565 123.60307 
L 343.185396 124.044089 
L 345.137227 124.220725 
L 349.040889 124.282592 
L 398.487273 124.284609 
L 398.487273 124.284609 
" clip-path="url(#p315b8b884b)" style="fill: none; stroke: #000000; stroke-width: 1.5; stroke-linecap: square"/>
   </g>
   <g id="line2d_61">
    <path d="M 73.832727 120.745857 
L 80.989441 121.125339 
L 84.242492 120.976962 
L 90.097985 120.628782 
L 96.604088 120.564031 
L 244.943239 120.562796 
L 333.426242 120.484308 
L 334.727462 120.297457 
L 336.028683 119.911773 
L 339.932345 118.379701 
L 341.233565 118.37887 
L 342.534786 118.721487 
L 346.438448 120.117451 
L 348.390279 120.42387 
L 350.99272 120.543504 
L 360.751875 120.562796 
L 398.487273 120.562796 
L 398.487273 120.562796 
" clip-path="url(#p315b8b884b)" style="fill: none; stroke: #000000; stroke-width: 1.5; stroke-linecap: square"/>
   </g>
   <g id="line2d_62">
    <path d="M 73.832727 117.40352 
L 77.085779 117.299653 
L 84.893103 116.876037 
L 94.001647 116.841026 
L 337.980514 116.744244 
L 339.281734 116.527139 
L 340.582955 116.103009 
L 343.836007 114.74245 
L 345.137227 114.61522 
L 346.438448 114.860083 
L 351.64333 116.565374 
L 353.595161 116.764453 
L 357.498823 116.838295 
L 398.487273 116.840983 
L 398.487273 116.840983 
" clip-path="url(#p315b8b884b)" style="fill: none; stroke: #000000; stroke-width: 1.5; stroke-linecap: square"/>
   </g>
   <g id="line2d_63">
    <path d="M 73.832727 113.343683 
L 78.386999 113.154224 
L 87.495544 113.119213 
L 342.534786 113.000275 
L 343.836007 112.750035 
L 345.137227 112.28806 
L 347.739668 111.142145 
L 349.040889 110.892056 
L 350.34211 111.024601 
L 351.64333 111.448647 
L 354.245772 112.439212 
L 356.197602 112.876033 
L 358.149433 113.05318 
L 362.053095 113.116933 
L 398.487273 113.11917 
L 398.487273 113.11917 
" clip-path="url(#p315b8b884b)" style="fill: none; stroke: #000000; stroke-width: 1.5; stroke-linecap: square"/>
   </g>
   <g id="line2d_64">
    <path d="M 73.832727 109.409005 
L 94.001647 109.397357 
L 346.438448 109.324469 
L 347.739668 109.135234 
L 349.040889 108.740975 
L 352.944551 107.210472 
L 354.245772 107.221029 
L 355.546992 107.56828 
L 359.450654 108.950923 
L 361.402485 109.255753 
L 364.004926 109.376999 
L 373.764081 109.397357 
L 398.487273 109.397357 
L 398.487273 109.397357 
" clip-path="url(#p315b8b884b)" style="fill: none; stroke: #000000; stroke-width: 1.5; stroke-linecap: square"/>
   </g>
   <g id="line2d_65">
    <path d="M 73.832727 105.675623 
L 350.99272 105.584524 
L 352.293941 105.36379 
L 353.595161 104.930279 
L 356.848213 103.569441 
L 358.149433 103.454197 
L 359.450654 103.70629 
L 364.655537 105.397528 
L 366.607367 105.596796 
L 370.511029 105.672591 
L 398.487273 105.675544 
L 398.487273 105.675544 
" clip-path="url(#p315b8b884b)" style="fill: none; stroke: #000000; stroke-width: 1.5; stroke-linecap: square"/>
   </g>
   <g id="line2d_66">
    <path d="M 73.832727 101.953732 
L 354.896382 101.901137 
L 356.197602 101.738698 
L 357.498823 101.375479 
L 361.402485 99.79969 
L 362.703706 99.753241 
L 364.004926 100.057812 
L 367.908588 101.454826 
L 369.860419 101.788924 
L 372.46286 101.928595 
L 380.920794 101.953729 
L 398.487273 101.953732 
L 398.487273 101.953732 
" clip-path="url(#p315b8b884b)" style="fill: none; stroke: #000000; stroke-width: 1.5; stroke-linecap: square"/>
   </g>
   <g id="line2d_67">
    <path d="M 73.832727 98.231918 
L 359.450654 98.164913 
L 360.751875 97.972891 
L 362.053095 97.569535 
L 365.306147 96.176082 
L 366.607367 96.00443 
L 367.908588 96.207083 
L 369.860419 96.924574 
L 371.81225 97.617574 
L 373.764081 98.015298 
L 376.366522 98.195973 
L 382.872625 98.231861 
L 398.487273 98.231919 
L 398.487273 98.231919 
" clip-path="url(#p315b8b884b)" style="fill: none; stroke: #000000; stroke-width: 1.5; stroke-linecap: square"/>
   </g>
   <g id="line2d_68">
    <path d="M 73.832727 94.510106 
L 364.004926 94.42506 
L 365.306147 94.200186 
L 366.607367 93.756891 
L 369.860419 92.397047 
L 371.16164 92.293616 
L 372.46286 92.552414 
L 377.667743 94.229757 
L 379.619574 94.429193 
L 383.523236 94.506881 
L 398.487273 94.510106 
L 398.487273 94.510106 
" clip-path="url(#p315b8b884b)" style="fill: none; stroke: #000000; stroke-width: 1.5; stroke-linecap: square"/>
   </g>
   <g id="line2d_69">
    <path d="M 73.832727 90.788293 
L 368.559198 90.680912 
L 369.860419 90.42017 
L 371.16164 89.93819 
L 373.764081 88.790059 
L 375.065302 88.563222 
L 376.366522 88.714162 
L 378.318353 89.399541 
L 380.270184 90.111221 
L 382.222015 90.540168 
L 384.173846 90.718235 
L 388.077508 90.785594 
L 398.487273 90.788293 
L 398.487273 90.788293 
" clip-path="url(#p315b8b884b)" style="fill: none; stroke: #000000; stroke-width: 1.5; stroke-linecap: square"/>
   </g>
   <g id="line2d_70">
    <path d="M 73.832727 87.06648 
L 372.46286 87.005664 
L 373.764081 86.810347 
L 375.065302 86.39743 
L 378.318353 85.002219 
L 379.619574 84.842364 
L 380.920794 85.052643 
L 382.872625 85.767705 
L 384.824456 86.452789 
L 386.776287 86.847342 
L 389.378728 87.029098 
L 395.234221 87.066333 
L 398.487273 87.066478 
L 398.487273 87.066478 
" clip-path="url(#p315b8b884b)" style="fill: none; stroke: #000000; stroke-width: 1.5; stroke-linecap: square"/>
   </g>
   <g id="line2d_71">
    <path d="M 73.832727 83.344667 
L 377.017132 83.265857 
L 378.318353 83.036242 
L 379.619574 82.582844 
L 382.222015 81.410908 
L 383.523236 81.1306 
L 384.824456 81.228007 
L 386.125677 81.622382 
L 389.378728 82.789976 
L 391.330559 83.151524 
L 393.933001 83.312595 
L 398.487273 83.344256 
L 398.487273 83.344256 
" clip-path="url(#p315b8b884b)" style="fill: none; stroke: #000000; stroke-width: 1.5; stroke-linecap: square"/>
   </g>
   <g id="line2d_72">
    <path d="M 73.832727 79.622855 
L 381.571405 79.521509 
L 382.872625 79.25458 
L 384.173846 78.762323 
L 386.776287 77.614828 
L 388.077508 77.399609 
L 389.378728 77.559018 
L 391.330559 78.243309 
L 393.28239 78.947139 
L 395.234221 79.372648 
L 397.186052 79.552633 
L 398.487273 79.600659 
L 398.487273 79.600659 
" clip-path="url(#p315b8b884b)" style="fill: none; stroke: #000000; stroke-width: 1.5; stroke-linecap: square"/>
   </g>
   <g id="line2d_73">
    <path d="M 73.832727 75.901041 
L 385.475066 75.846723 
L 386.776287 75.647527 
L 388.077508 75.22469 
L 391.330559 73.829417 
L 392.63178 73.682262 
L 393.933001 73.902674 
L 395.884831 74.62956 
L 397.836662 75.350949 
L 398.487273 75.54022 
L 398.487273 75.54022 
" clip-path="url(#p315b8b884b)" style="fill: none; stroke: #000000; stroke-width: 1.5; stroke-linecap: square"/>
   </g>
   <g id="line2d_74">
    <path d="M 73.832727 72.179229 
L 390.029339 72.113312 
L 391.330559 71.888429 
L 392.63178 71.446474 
L 395.234221 70.381459 
L 396.535442 70.205525 
L 397.836662 70.415128 
L 398.487273 70.633033 
L 398.487273 70.633033 
" clip-path="url(#p315b8b884b)" style="fill: none; stroke: #000000; stroke-width: 1.5; stroke-linecap: square"/>
   </g>
   <g id="line2d_75">
    <path d="M 73.832727 68.457416 
L 390.029339 68.556012 
L 394.583611 68.775163 
L 395.884831 68.535921 
L 397.186052 67.992108 
L 398.487273 67.26023 
L 398.487273 67.26023 
" clip-path="url(#p315b8b884b)" style="fill: none; stroke: #000000; stroke-width: 1.5; stroke-linecap: square"/>
   </g>
   <g id="line2d_76">
    <path d="M 73.832727 64.735603 
L 385.475066 64.824585 
L 393.28239 65.112728 
L 398.487273 64.696286 
L 398.487273 64.696286 
" clip-path="url(#p315b8b884b)" style="fill: none; stroke: #000000; stroke-width: 1.5; stroke-linecap: square"/>
   </g>
   <g id="line2d_77">
    <path d="M 73.832727 61.01379 
L 381.571405 61.123589 
L 388.077508 61.442981 
L 391.330559 61.168604 
L 393.933001 61.025459 
L 398.487273 61.013318 
L 398.487273 61.013318 
" clip-path="url(#p315b8b884b)" style="fill: none; stroke: #000000; stroke-width: 1.5; stroke-linecap: square"/>
   </g>
   <g id="line2d_78">
    <path d="M 73.832727 57.291977 
L 377.017132 57.391063 
L 384.173846 57.699986 
L 391.330559 57.290059 
L 398.487273 57.291969 
L 398.487273 57.291969 
" clip-path="url(#p315b8b884b)" style="fill: none; stroke: #000000; stroke-width: 1.5; stroke-linecap: square"/>
   </g>
   <g id="line2d_79">
    <path d="M 73.832727 53.570164 
L 372.46286 53.659374 
L 380.270184 53.949883 
L 385.475066 53.576914 
L 395.884831 53.570161 
L 398.487273 53.570159 
L 398.487273 53.570159 
" clip-path="url(#p315b8b884b)" style="fill: none; stroke: #000000; stroke-width: 1.5; stroke-linecap: square"/>
   </g>
   <g id="patch_3">
    <path d="M 57.6 307.584 
L 57.6 41.472 
" style="fill: none; stroke: #000000; stroke-width: 0.8; stroke-linejoin: miter; stroke-linecap: square"/>
   </g>
   <g id="patch_4">
    <path d="M 414.72 307.584 
L 414.72 41.472 
" style="fill: none; stroke: #000000; stroke-width: 0.8; stroke-linejoin: miter; stroke-linecap: square"/>
   </g>
   <g id="patch_5">
    <path d="M 57.6 307.584 
L 414.72 307.584 
" style="fill: none; stroke: #000000; stroke-width: 0.8; stroke-linejoin: miter; stroke-linecap: square"/>
   </g>
   <g id="patch_6">
    <path d="M 57.6 41.472 
L 414.72 41.472 
" style="fill: none; stroke: #000000; stroke-width: 0.8; stroke-linejoin: miter; stroke-linecap: square"/>
   </g>
   <g id="text_16">
    <!-- Evolution of E-field with Time -->
    <g transform="translate(148.461563 22.034625) scale(0.12 -0.12)">
     <defs>
      <path id="DejaVuSans-45" d="M 628 4666 
L 3578 4666 
L 3578 4134 
L 1259 4134 
L 1259 2753 
L 3481 2753 
L 3481 2222 
L 1259 2222 
L 1259 531 
L 3634 531 
L 3634 0 
L 628 0 
L 628 4666 
z
" transform="scale(0.015625)"/>
      <path id="DejaVuSans-76" d="M 191 3500 
L 800 3500 
L 1894 563 
L 2988 3500 
L 3597 3500 
L 2284 0 
L 1503 0 
L 191 3500 
z
" transform="scale(0.015625)"/>
      <path id="DejaVuSans-6c" d="M 603 4863 
L 1178 4863 
L 1178 0 
L 603 0 
L 603 4863 
z
" transform="scale(0.015625)"/>
      <path id="DejaVuSans-75" d="M 544 1381 
L 544 3500 
L 1119 3500 
L 1119 1403 
Q 1119 906 1312 657 
Q 1506 409 1894 409 
Q 2359 409 2629 706 
Q 2900 1003 2900 1516 
L 2900 3500 
L 3475 3500 
L 3475 0 
L 2900 0 
L 2900 538 
Q 2691 219 2414 64 
Q 2138 -91 1772 -91 
Q 1169 -91 856 284 
Q 544 659 544 1381 
z
M 1991 3584 
L 1991 3584 
z
" transform="scale(0.015625)"/>
      <path id="DejaVuSans-20" transform="scale(0.015625)"/>
      <path id="DejaVuSans-66" d="M 2375 4863 
L 2375 4384 
L 1825 4384 
Q 1516 4384 1395 4259 
Q 1275 4134 1275 3809 
L 1275 3500 
L 2222 3500 
L 2222 3053 
L 1275 3053 
L 1275 0 
L 697 0 
L 697 3053 
L 147 3053 
L 147 3500 
L 697 3500 
L 697 3744 
Q 697 4328 969 4595 
Q 1241 4863 1831 4863 
L 2375 4863 
z
" transform="scale(0.015625)"/>
      <path id="DejaVuSans-2d" d="M 313 2009 
L 1997 2009 
L 1997 1497 
L 313 1497 
L 313 2009 
z
" transform="scale(0.015625)"/>
      <path id="DejaVuSans-64" d="M 2906 2969 
L 2906 4863 
L 3481 4863 
L 3481 0 
L 2906 0 
L 2906 525 
Q 2725 213 2448 61 
Q 2172 -91 1784 -91 
Q 1150 -91 751 415 
Q 353 922 353 1747 
Q 353 2572 751 3078 
Q 1150 3584 1784 3584 
Q 2172 3584 2448 3432 
Q 2725 3281 2906 2969 
z
M 947 1747 
Q 947 1113 1208 752 
Q 1469 391 1925 391 
Q 2381 391 2643 752 
Q 2906 1113 2906 1747 
Q 2906 2381 2643 2742 
Q 2381 3103 1925 3103 
Q 1469 3103 1208 2742 
Q 947 2381 947 1747 
z
" transform="scale(0.015625)"/>
      <path id="DejaVuSans-77" d="M 269 3500 
L 844 3500 
L 1563 769 
L 2278 3500 
L 2956 3500 
L 3675 769 
L 4391 3500 
L 4966 3500 
L 4050 0 
L 3372 0 
L 2619 2869 
L 1863 0 
L 1184 0 
L 269 3500 
z
" transform="scale(0.015625)"/>
      <path id="DejaVuSans-68" d="M 3513 2113 
L 3513 0 
L 2938 0 
L 2938 2094 
Q 2938 2591 2744 2837 
Q 2550 3084 2163 3084 
Q 1697 3084 1428 2787 
Q 1159 2491 1159 1978 
L 1159 0 
L 581 0 
L 581 4863 
L 1159 4863 
L 1159 2956 
Q 1366 3272 1645 3428 
Q 1925 3584 2291 3584 
Q 2894 3584 3203 3211 
Q 3513 2838 3513 2113 
z
" transform="scale(0.015625)"/>
      <path id="DejaVuSans-54" d="M -19 4666 
L 3928 4666 
L 3928 4134 
L 2272 4134 
L 2272 0 
L 1638 0 
L 1638 4134 
L -19 4134 
L -19 4666 
z
" transform="scale(0.015625)"/>
      <path id="DejaVuSans-6d" d="M 3328 2828 
Q 3544 3216 3844 3400 
Q 4144 3584 4550 3584 
Q 5097 3584 5394 3201 
Q 5691 2819 5691 2113 
L 5691 0 
L 5113 0 
L 5113 2094 
Q 5113 2597 4934 2840 
Q 4756 3084 4391 3084 
Q 3944 3084 3684 2787 
Q 3425 2491 3425 1978 
L 3425 0 
L 2847 0 
L 2847 2094 
Q 2847 2600 2669 2842 
Q 2491 3084 2119 3084 
Q 1678 3084 1418 2786 
Q 1159 2488 1159 1978 
L 1159 0 
L 581 0 
L 581 3500 
L 1159 3500 
L 1159 2956 
Q 1356 3278 1631 3431 
Q 1906 3584 2284 3584 
Q 2666 3584 2933 3390 
Q 3200 3197 3328 2828 
z
" transform="scale(0.015625)"/>
     </defs>
     <use xlink:href="#DejaVuSans-45"/>
     <use xlink:href="#DejaVuSans-76" x="63.183594"/>
     <use xlink:href="#DejaVuSans-6f" x="122.363281"/>
     <use xlink:href="#DejaVuSans-6c" x="183.544922"/>
     <use xlink:href="#DejaVuSans-75" x="211.328125"/>
     <use xlink:href="#DejaVuSans-74" x="274.707031"/>
     <use xlink:href="#DejaVuSans-69" x="313.916016"/>
     <use xlink:href="#DejaVuSans-6f" x="341.699219"/>
     <use xlink:href="#DejaVuSans-6e" x="402.880859"/>
     <use xlink:href="#DejaVuSans-20" x="466.259766"/>
     <use xlink:href="#DejaVuSans-6f" x="498.046875"/>
     <use xlink:href="#DejaVuSans-66" x="559.228516"/>
     <use xlink:href="#DejaVuSans-20" x="594.433594"/>
     <use xlink:href="#DejaVuSans-45" x="626.220703"/>
     <use xlink:href="#DejaVuSans-2d" x="689.404297"/>
     <use xlink:href="#DejaVuSans-66" x="725.488281"/>
     <use xlink:href="#DejaVuSans-69" x="760.693359"/>
     <use xlink:href="#DejaVuSans-65" x="788.476562"/>
     <use xlink:href="#DejaVuSans-6c" x="850"/>
     <use xlink:href="#DejaVuSans-64" x="877.783203"/>
     <use xlink:href="#DejaVuSans-20" x="941.259766"/>
     <use xlink:href="#DejaVuSans-77" x="973.046875"/>
     <use xlink:href="#DejaVuSans-69" x="1054.833984"/>
     <use xlink:href="#DejaVuSans-74" x="1082.617188"/>
     <use xlink:href="#DejaVuSans-68" x="1121.826172"/>
     <use xlink:href="#DejaVuSans-20" x="1185.205078"/>
     <use xlink:href="#DejaVuSans-54" x="1216.992188"/>
     <use xlink:href="#DejaVuSans-69" x="1274.951172"/>
     <use xlink:href="#DejaVuSans-6d" x="1302.734375"/>
     <use xlink:href="#DejaVuSans-65" x="1400.146484"/>
    </g>
    <!-- 24-10-31-22-03-32 -->
    <g transform="translate(179.526563 35.472) scale(0.12 -0.12)">
     <use xlink:href="#DejaVuSans-32"/>
     <use xlink:href="#DejaVuSans-34" x="63.623047"/>
     <use xlink:href="#DejaVuSans-2d" x="127.246094"/>
     <use xlink:href="#DejaVuSans-31" x="163.330078"/>
     <use xlink:href="#DejaVuSans-30" x="226.953125"/>
     <use xlink:href="#DejaVuSans-2d" x="290.576172"/>
     <use xlink:href="#DejaVuSans-33" x="326.660156"/>
     <use xlink:href="#DejaVuSans-31" x="390.283203"/>
     <use xlink:href="#DejaVuSans-2d" x="453.90625"/>
     <use xlink:href="#DejaVuSans-32" x="489.990234"/>
     <use xlink:href="#DejaVuSans-32" x="553.613281"/>
     <use xlink:href="#DejaVuSans-2d" x="617.236328"/>
     <use xlink:href="#DejaVuSans-30" x="653.320312"/>
     <use xlink:href="#DejaVuSans-33" x="716.943359"/>
     <use xlink:href="#DejaVuSans-2d" x="780.566406"/>
     <use xlink:href="#DejaVuSans-33" x="816.650391"/>
     <use xlink:href="#DejaVuSans-32" x="880.273438"/>
    </g>
   </g>
  </g>
 </g>
 <defs>
  <clipPath id="p315b8b884b">
   <rect x="57.6" y="41.472" width="357.12" height="266.112"/>
  </clipPath>
 </defs>
</svg>
